<svg xmlns="http://www.w3.org/2000/svg" xmlns:xlink="http://www.w3.org/1999/xlink" width="500" zoomAndPan="magnify" viewBox="0 0 375 374.999991" height="500" preserveAspectRatio="xMidYMid meet" version="1.0"><defs><g/><clipPath id="f92bb2adf0"><path d="M 75.527344 69.363281 L 318.796875 69.363281 L 318.796875 312.636719 L 75.527344 312.636719 Z M 75.527344 69.363281 " clip-rule="nonzero"/></clipPath><clipPath id="c28b88e7d8"><path d="M 197.164062 69.363281 C 129.984375 69.363281 75.527344 123.820312 75.527344 191 C 75.527344 258.175781 129.984375 312.636719 197.164062 312.636719 C 264.339844 312.636719 318.796875 258.175781 318.796875 191 C 318.796875 123.820312 264.339844 69.363281 197.164062 69.363281 " clip-rule="nonzero"/></clipPath></defs><g clip-path="url(#f92bb2adf0)"><g clip-path="url(#c28b88e7d8)"><path fill="#efeae3" d="M 75.527344 69.363281 L 318.796875 69.363281 L 318.796875 312.636719 L 75.527344 312.636719 Z M 75.527344 69.363281 " fill-opacity="1" fill-rule="nonzero"/></g></g><g fill="#1e416d" fill-opacity="1"><g transform="translate(24.538822, 215.644487)"><g><path d="M 73.6875 -142.109375 C 82.488281 -142.109375 90.78125 -140.242188 98.5625 -136.515625 C 106.34375 -132.796875 113.109375 -127.722656 118.859375 -121.296875 C 124.617188 -114.867188 129.1875 -107.320312 132.5625 -98.65625 C 135.945312 -90 137.640625 -80.800781 137.640625 -71.0625 C 137.640625 -61.3125 135.945312 -52.101562 132.5625 -43.4375 C 129.1875 -34.78125 124.617188 -27.238281 118.859375 -20.8125 C 113.109375 -14.382812 106.34375 -9.304688 98.5625 -5.578125 C 90.78125 -1.859375 82.488281 0 73.6875 0 L 59.28125 0 C 64.832031 0 70.078125 -1.894531 75.015625 -5.6875 C 79.953125 -9.476562 84.25 -14.617188 87.90625 -21.109375 C 91.5625 -27.609375 94.4375 -35.15625 96.53125 -43.75 C 98.632812 -52.34375 99.6875 -61.445312 99.6875 -71.0625 C 99.6875 -80.664062 98.632812 -89.765625 96.53125 -98.359375 C 94.4375 -106.953125 91.5625 -114.492188 87.90625 -120.984375 C 84.25 -127.484375 79.953125 -132.628906 75.015625 -136.421875 C 70.078125 -140.210938 64.832031 -142.109375 59.28125 -142.109375 Z M 52.984375 -140.890625 L 52.984375 0 L 5.078125 0 C 8.460938 0 11.335938 -1.382812 13.703125 -4.15625 C 16.066406 -6.9375 17.25 -10.019531 17.25 -13.40625 L 17.25 -128.71875 C 17.25 -132.09375 16.066406 -135.164062 13.703125 -137.9375 C 11.335938 -140.71875 8.460938 -142.109375 5.078125 -142.109375 L 52.984375 -142.109375 Z M 52.984375 -140.890625 "/></g></g></g><g fill="#2c002a" fill-opacity="1"><g transform="translate(167.253202, 251.719342)"><g><path d="M 91.765625 -129.328125 C 91.765625 -131.347656 91.1875 -133.101562 90.03125 -134.59375 C 88.882812 -136.082031 87.429688 -137.332031 85.671875 -138.34375 C 83.910156 -139.363281 81.976562 -140.144531 79.875 -140.6875 C 77.78125 -141.226562 75.785156 -141.632812 73.890625 -141.90625 C 78.765625 -141.5 83.503906 -140.515625 88.109375 -138.953125 C 92.710938 -137.398438 96.972656 -135.441406 100.890625 -133.078125 C 104.816406 -130.710938 108.300781 -128.039062 111.34375 -125.0625 C 114.394531 -122.082031 116.9375 -119.035156 118.96875 -115.921875 C 120.320312 -113.617188 121.367188 -111.347656 122.109375 -109.109375 C 122.859375 -106.878906 123.234375 -104.679688 123.234375 -102.515625 C 123.234375 -99.546875 122.65625 -96.738281 121.5 -94.09375 C 120.351562 -91.457031 118.796875 -89.15625 116.828125 -87.1875 C 114.867188 -85.226562 112.566406 -83.671875 109.921875 -82.515625 C 107.285156 -81.367188 104.476562 -80.796875 101.5 -80.796875 C 98.53125 -80.796875 95.722656 -81.367188 93.078125 -82.515625 C 90.441406 -83.671875 88.140625 -85.226562 86.171875 -87.1875 C 84.210938 -89.15625 82.65625 -91.457031 81.5 -94.09375 C 80.351562 -96.738281 79.78125 -99.546875 79.78125 -102.515625 C 79.78125 -105.898438 80.390625 -108.707031 81.609375 -110.9375 C 82.828125 -113.175781 84.144531 -115.207031 85.5625 -117.03125 C 86.988281 -118.863281 88.34375 -120.691406 89.625 -122.515625 C 90.914062 -124.347656 91.628906 -126.617188 91.765625 -129.328125 Z M 91.96875 -18.671875 C 97.65625 -18.671875 103.269531 -19.921875 108.8125 -22.421875 C 114.363281 -24.929688 119.171875 -28.554688 123.234375 -33.296875 C 117.546875 -23.140625 109.960938 -15.050781 100.484375 -9.03125 C 91.015625 -3.007812 80.53125 0 69.03125 0 C 60.226562 0 51.9375 -1.859375 44.15625 -5.578125 C 36.375 -9.304688 29.570312 -14.382812 23.75 -20.8125 C 17.925781 -27.238281 13.359375 -34.78125 10.046875 -43.4375 C 6.734375 -52.101562 5.078125 -61.3125 5.078125 -71.0625 C 5.078125 -80.800781 6.734375 -90 10.046875 -98.65625 C 13.359375 -107.320312 17.925781 -114.867188 23.75 -121.296875 C 29.570312 -127.722656 36.375 -132.796875 44.15625 -136.515625 C 51.9375 -140.242188 60.226562 -142.109375 69.03125 -142.109375 C 66.050781 -142.109375 63.101562 -140.582031 60.1875 -137.53125 C 57.28125 -134.488281 54.640625 -130.429688 52.265625 -125.359375 C 49.898438 -120.285156 48.003906 -114.332031 46.578125 -107.5 C 45.160156 -100.664062 44.453125 -93.523438 44.453125 -86.078125 C 44.453125 -76.742188 45.703125 -67.976562 48.203125 -59.78125 C 50.710938 -51.59375 54.097656 -44.453125 58.359375 -38.359375 C 62.628906 -32.273438 67.671875 -27.472656 73.484375 -23.953125 C 79.304688 -20.429688 85.46875 -18.671875 91.96875 -18.671875 Z M 91.96875 -18.671875 "/></g></g></g></svg>